<svg width="25" height="25" viewBox="0 0 25 25" fill="none" xmlns="http://www.w3.org/2000/svg">
<path d="M0.390381 12.2618C0.390381 10.8596 1.37483 9.86651 2.76828 9.86651H9.84204V2.78837C9.84204 1.39927 10.8196 0.390625 12.1977 0.390625C13.5999 0.390625 14.593 1.39927 14.593 2.78837V9.86651H21.6909C23.0646 9.86651 24.0688 10.8596 24.0688 12.2618C24.0688 13.6442 23.0646 14.5976 21.6909 14.5976H14.593V21.6955C14.593 23.0847 13.5999 24.0691 12.1977 24.0691C10.8196 24.0691 9.84204 23.0647 9.84204 21.6955V14.5976H2.76828C1.37483 14.5976 0.390381 13.6442 0.390381 12.2618Z" fill="white"/>
</svg>
