<svg width="25" height="23" viewBox="0 0 25 23" fill="none" xmlns="http://www.w3.org/2000/svg">
<path d="M4.09421 22.3972H20.218C22.7474 22.3972 24.0526 21.0919 24.0526 18.5914V4.32921C24.0526 1.82656 22.7474 0.523438 20.218 0.523438H4.09421C1.56484 0.523438 0.25 1.81695 0.25 4.32921V18.5914C0.25 21.1016 1.56484 22.3972 4.09421 22.3972ZM4.06186 20.1013C3.07795 20.1013 2.54592 19.5969 2.54592 18.5661V7.7389C2.54592 6.71772 3.07795 6.20585 4.06186 6.20585H20.2312C21.2151 6.20585 21.7567 6.71772 21.7567 7.7389V18.5661C21.7567 19.5969 21.2151 20.1013 20.2312 20.1013H4.06186Z" fill="#339966"/>
<path d="M6.08197 10.4323H18.2537C18.6766 10.4323 19.0014 10.0958 19.0014 9.67295C19.0014 9.26186 18.6766 8.94873 18.2537 8.94873H6.08197C5.63783 8.94873 5.32471 9.26186 5.32471 9.67295C5.32471 10.0958 5.63783 10.4323 6.08197 10.4323ZM6.08197 13.8943H18.2537C18.6766 13.8943 19.0014 13.5791 19.0014 13.1701C19.0014 12.7377 18.6766 12.4107 18.2537 12.4107H6.08197C5.63783 12.4107 5.32471 12.7377 5.32471 13.1701C5.32471 13.5791 5.63783 13.8943 6.08197 13.8943ZM6.08197 17.3584H13.7655C14.1883 17.3584 14.5131 17.0431 14.5131 16.632C14.5131 16.2092 14.1883 15.8748 13.7655 15.8748H6.08197C5.63783 15.8748 5.32471 16.2092 5.32471 16.632C5.32471 17.0431 5.63783 17.3584 6.08197 17.3584Z" fill="#339966"/>
</svg>
