<svg width="25" height="23" viewBox="0 0 25 23" fill="none" xmlns="http://www.w3.org/2000/svg">
<path d="M4.44296 22.4486H20.5668C23.0962 22.4486 24.4014 21.1433 24.4014 18.6428V4.3806C24.4014 1.87795 23.0962 0.574829 20.5668 0.574829H4.44296C1.91359 0.574829 0.598755 1.86834 0.598755 4.3806V18.6428C0.598755 21.153 1.91359 22.4486 4.44296 22.4486ZM4.41061 20.1527C3.4267 20.1527 2.89467 19.6483 2.89467 18.6175V7.79029C2.89467 6.76911 3.4267 6.25724 4.41061 6.25724H20.58C21.5639 6.25724 22.1055 6.76911 22.1055 7.79029V18.6175C22.1055 19.6483 21.5639 20.1527 20.58 20.1527H4.41061ZM10.2503 10.3187H10.9418C11.3582 10.3187 11.4935 10.1952 11.4935 9.77873V9.08732C11.4935 8.67084 11.3582 8.53771 10.9418 8.53771H10.2503C9.83383 8.53771 9.68898 8.67084 9.68898 9.08732V9.77873C9.68898 10.1952 9.83383 10.3187 10.2503 10.3187ZM14.0798 10.3187H14.7712C15.1877 10.3187 15.3347 10.1952 15.3347 9.77873V9.08732C15.3347 8.67084 15.1877 8.53771 14.7712 8.53771H14.0798C13.6633 8.53771 13.5185 8.67084 13.5185 9.08732V9.77873C13.5185 10.1952 13.6633 10.3187 14.0798 10.3187ZM17.9114 10.3187H18.6028C19.0193 10.3187 19.1641 10.1952 19.1641 9.77873V9.08732C19.1641 8.67084 19.0193 8.53771 18.6028 8.53771H17.9114C17.4949 8.53771 17.3597 8.67084 17.3597 9.08732V9.77873C17.3597 10.1952 17.4949 10.3187 17.9114 10.3187ZM6.42086 14.0896H7.10053C7.52874 14.0896 7.66397 13.9661 7.66397 13.5496V12.8582C7.66397 12.4417 7.52874 12.3182 7.10053 12.3182H6.42086C5.99265 12.3182 5.85741 12.4417 5.85741 12.8582V13.5496C5.85741 13.9661 5.99265 14.0896 6.42086 14.0896ZM10.2503 14.0896H10.9418C11.3582 14.0896 11.4935 13.9661 11.4935 13.5496V12.8582C11.4935 12.4417 11.3582 12.3182 10.9418 12.3182H10.2503C9.83383 12.3182 9.68898 12.4417 9.68898 12.8582V13.5496C9.68898 13.9661 9.83383 14.0896 10.2503 14.0896ZM14.0798 14.0896H14.7712C15.1877 14.0896 15.3347 13.9661 15.3347 13.5496V12.8582C15.3347 12.4417 15.1877 12.3182 14.7712 12.3182H14.0798C13.6633 12.3182 13.5185 12.4417 13.5185 12.8582V13.5496C13.5185 13.9661 13.6633 14.0896 14.0798 14.0896ZM17.9114 14.0896H18.6028C19.0193 14.0896 19.1641 13.9661 19.1641 13.5496V12.8582C19.1641 12.4417 19.0193 12.3182 18.6028 12.3182H17.9114C17.4949 12.3182 17.3597 12.4417 17.3597 12.8582V13.5496C17.3597 13.9661 17.4949 14.0896 17.9114 14.0896ZM6.42086 17.8701H7.10053C7.52874 17.8701 7.66397 17.7391 7.66397 17.3205V16.6312C7.66397 16.2126 7.52874 16.0912 7.10053 16.0912H6.42086C5.99265 16.0912 5.85741 16.2126 5.85741 16.6312V17.3205C5.85741 17.7391 5.99265 17.8701 6.42086 17.8701ZM10.2503 17.8701H10.9418C11.3582 17.8701 11.4935 17.7391 11.4935 17.3205V16.6312C11.4935 16.2126 11.3582 16.0912 10.9418 16.0912H10.2503C9.83383 16.0912 9.68898 16.2126 9.68898 16.6312V17.3205C9.68898 17.7391 9.83383 17.8701 10.2503 17.8701ZM14.0798 17.8701H14.7712C15.1877 17.8701 15.3347 17.7391 15.3347 17.3205V16.6312C15.3347 16.2126 15.1877 16.0912 14.7712 16.0912H14.0798C13.6633 16.0912 13.5185 16.2126 13.5185 16.6312V17.3205C13.5185 17.7391 13.6633 17.8701 14.0798 17.8701Z" fill="#212121"/>
</svg>
