<svg width="26" height="25" viewBox="0 0 26 25" fill="none" xmlns="http://www.w3.org/2000/svg">
<path d="M11.6771 24.9406H13.8228C14.5165 24.9406 15.0357 24.5224 15.1836 23.8467L15.774 21.3551C16.1783 21.2196 16.5708 21.0628 16.9133 20.8985L19.0969 22.2349C19.6704 22.5935 20.3396 22.534 20.8205 22.0573L22.3259 20.5615C22.8068 20.0806 22.8718 19.3742 22.4897 18.8028L21.1575 16.6425C21.3315 16.283 21.4861 15.9117 21.6003 15.5384L24.1154 14.9384C24.7911 14.7926 25.1996 14.2713 25.1996 13.5776V11.4713C25.1996 10.7892 24.7911 10.2701 24.1154 10.1201L21.6258 9.52225C21.4904 9.10084 21.3261 8.71787 21.1789 8.39677L22.5153 6.19716C22.8877 5.61943 22.8399 4.94818 22.3451 4.47147L20.8142 2.96186C20.3258 2.51701 19.7237 2.43615 19.1405 2.76076L16.9133 4.13655C16.5804 3.96053 16.1975 3.80584 15.7761 3.66826L15.1836 1.14146C15.0357 0.465764 14.5165 0.0455322 13.8228 0.0455322H11.6771C10.9833 0.0455322 10.4642 0.465764 10.3088 1.14357L9.7163 3.64482C9.312 3.78029 8.91731 3.93709 8.56528 4.12272L6.35934 2.76076C5.77411 2.43615 5.16661 2.5053 4.67396 2.96607L3.15474 4.47147C2.65998 4.94818 2.60467 5.61943 2.98669 6.19716L4.31138 8.39677C4.17381 8.71787 4.00951 9.10084 3.87615 9.52225L1.38661 10.1201C0.708806 10.2701 0.300293 10.7892 0.300293 11.4713V13.5776C0.300293 14.2713 0.708806 14.7926 1.38661 14.9384L3.89958 15.5384C4.01584 15.9117 4.16841 16.283 4.33271 16.6425L3.01013 18.8028C2.61849 19.3742 2.69513 20.0806 3.17607 20.5615L4.67185 22.0573C5.15068 22.534 5.83153 22.5935 6.40504 22.2349L8.577 20.8985C8.93114 21.0628 9.312 21.2196 9.7163 21.3551L10.3088 23.8467C10.4642 24.5224 10.9833 24.9406 11.6771 24.9406ZM12.751 16.5971C10.4965 16.5971 8.65012 14.7389 8.65012 12.4845C8.65012 10.2417 10.4965 8.39536 12.751 8.39536C15.0033 8.39536 16.8497 10.2417 16.8497 12.4845C16.8497 14.7389 15.0033 16.5971 12.751 16.5971Z" fill="#212121"/>
</svg>
